<?xml version="1.0" encoding="UTF-8" standalone="no"?>
<svg
   id="Layer_1"
   viewBox="0 0 32 32"
   version="1.1"
   sodipodi:docname="Kelvin-Icon-BGnone-Vector-SVG_C-32.svg"
   width="32"
   height="32"
   inkscape:version="1.3.2 (091e20e, 2023-11-25, custom)"
   xmlns:inkscape="http://www.inkscape.org/namespaces/inkscape"
   xmlns:sodipodi="http://sodipodi.sourceforge.net/DTD/sodipodi-0.dtd"
   xmlns="http://www.w3.org/2000/svg"
   xmlns:svg="http://www.w3.org/2000/svg">
  <sodipodi:namedview
     id="namedview3"
     pagecolor="#ffffff"
     bordercolor="#000000"
     borderopacity="0.25"
     inkscape:showpageshadow="2"
     inkscape:pageopacity="0.0"
     inkscape:pagecheckerboard="0"
     inkscape:deskcolor="#d1d1d1"
     inkscape:zoom="1.2219164"
     inkscape:cx="499.625"
     inkscape:cy="499.625"
     inkscape:window-width="2560"
     inkscape:window-height="1417"
     inkscape:window-x="-8"
     inkscape:window-y="320"
     inkscape:window-maximized="1"
     inkscape:current-layer="Layer_1" />
  <defs
     id="defs1">
    <style
       id="style1">.cls-1{fill:#460182;}.cls-1,.cls-2{stroke-width:0px;}.cls-2{fill:#fff;}</style>
  </defs>
  <path
     class="cls-2"
     d="M 27.04069,1.415575 H 2.8162918 c -0.8025519,0 -1.4531053,0.6543029 -1.4531053,1.4613729 V 26.0485 c 0,0.804187 0.6479933,1.455928 1.4476655,1.455928 h 24.235597 c 0.797752,0 1.444786,-0.650459 1.444786,-1.453046 V 2.8740654 c 0,-0.8054685 -0.649274,-1.4584904 -1.450226,-1.4584904 z"
     id="path1" />
  <path
     class="cls-1"
     d="M 31.392965,3.8364642 C 31.181448,3.47008 30.122898,1.636238 29.8861,1.245834 29.648983,0.85542999 29.224348,0 28.383716,0 H 1.3119869 C 0.50943489,0 0,0.72251967 0,1.2810632 c 0,0 0.01567984,25.8995768 0.01567984,25.9786818 0,0.68729 0.31551685,0.868561 1.03742966,1.616381 0,0 1.3033469,1.22726 2.2348576,2.159232 C 4.2329177,31.981104 4.2329177,32 5.9404205,32 H 30.580814 C 31.652803,32 32,31.368116 32,30.597235 V 5.4960817 C 32,4.8049481 31.605124,4.2025281 31.393285,3.836144 Z m -2.90173,22.2149178 c 0,0.802587 -0.646714,1.453046 -1.444786,1.453046 H 2.810852 c -0.7993522,0 -1.4476655,-0.651741 -1.4476655,-1.455928 V 2.8769479 c 0,-0.80707 0.6505534,-1.4613729 1.4531053,-1.4613729 H 27.04069 c 0.800951,0 1.450224,0.6530219 1.450224,1.4584904 V 26.051062 Z"
     id="path2" />
  <path
     class="cls-1"
     d="m 18.209737,6.0440565 c 0.443197,-0.4486925 1.05439,-0.5329224 1.638384,-0.4666274 1.249908,0.1415576 2.184618,1.2384684 2.0899,2.4939102 -0.03328,0.4410062 -0.164479,0.8724037 -0.478716,1.1859437 -1.607024,1.60197 -2.424615,2.461564 -4.161878,4.110932 0.359997,0.540289 4.397716,6.463606 4.543314,6.677863 0.07168,0.105367 0.12864,0.281193 0.157119,0.513066 0.254397,2.073721 -2.02078,3.538617 -3.780443,2.414164 -0.145598,-0.09288 -0.260477,-0.189599 -0.333116,-0.288561 -0.639353,-0.872403 -3.800283,-5.922675 -4.097878,-6.380014 -0.01216,-0.0189 -0.03776,-0.02306 -0.05536,-0.0093 l -0.866232,0.678004 c 0,0 -0.0416,3.251979 -0.0416,4.086912 0,0.737251 -0.268477,1.354725 -0.92511,1.815907 -1.475825,1.160644 -4.0713192,0.124263 -4.0092397,-1.636878 -0.01376,-4.621437 -0.01216,-9.243193 -0.01216,-13.8649479 0,-0.292403 0.2025569,-0.6187543 0.4908745,-0.9351768 1.04895,-1.151996 2.8636512,-1.1587215 3.9308412,-0.023699 0.304957,0.3241088 0.520315,0.6645513 0.520315,0.9787325 0,1.2038787 0.0032,2.5947939 0.0032,3.7307762 L 18.2091,6.0437256 Z"
     id="path3" />
</svg>
